<svg width="167" height="39" viewBox="0 0 167 39" fill="none" xmlns="http://www.w3.org/2000/svg">
<g clip-path="url(#clip0_27_53998)">
<path d="M37.0143 30.5862C35.575 31.1889 34.1137 31.7162 32.633 32.1681C28.1727 33.5332 23.5379 34.2228 18.7996 34.2228C14.0613 34.2228 9.42651 33.5332 4.96498 32.1681C3.48426 31.7162 2.02295 31.1889 0.583618 30.5862L2.48591 24.921C3.91361 25.534 5.37492 26.0639 6.86469 26.5107C10.6874 27.6562 14.6989 28.2484 18.7996 28.2484C22.9004 28.2484 26.9106 27.6562 30.7333 26.5107L29.6146 23.1819C26.145 24.1963 22.5124 24.721 18.7996 24.721C15.0868 24.721 11.453 24.1963 7.9833 23.1819C6.48966 22.7468 5.02705 22.2195 3.60065 21.6026L5.0943 17.1543L6.12368 14.0879L8.02857 8.4187C9.47178 8.98886 10.9615 9.44344 12.4849 9.77592C14.5359 10.2253 16.6503 10.4552 18.7996 10.4552C20.9489 10.4552 23.0633 10.2253 25.113 9.77592C26.6377 9.44344 28.1262 8.98886 29.5694 8.4187L31.4743 14.0892C30.0259 14.6463 28.54 15.1074 27.0244 15.4685C24.3617 16.1036 21.6059 16.4296 18.7996 16.4296C15.9934 16.4296 13.2376 16.1036 10.5736 15.4685L9.47307 18.744C12.4681 19.6025 15.599 20.0454 18.7996 20.0454C22.0003 20.0454 25.1311 19.6025 28.1249 18.7453C29.6211 18.318 31.0837 17.7855 32.5037 17.1543L33.9973 21.6026L35.112 24.921L37.0143 30.5862Z" fill="url(#paint0_linear_27_53998)"/>
<path d="M7.98329 23.1819L6.86467 26.5106C5.37491 26.0638 3.91359 25.5339 2.4859 24.9209L3.60064 21.6025C5.02704 22.2195 6.48965 22.7468 7.98329 23.1819Z" fill="url(#paint1_linear_27_53998)"/>
<path d="M28.2374 5.3146C26.9907 5.80164 25.7001 6.19257 24.3953 6.477C24.0771 6.54714 23.7564 6.61078 23.4331 6.66792C22.2524 5.4224 20.5933 4.6756 18.7996 4.6756C17.0059 4.6756 15.3455 5.4224 14.1648 6.66792C13.8415 6.60948 13.5195 6.54584 13.1988 6.47571C11.8952 6.19127 10.6059 5.80164 9.36053 5.3146C11.3378 2.06116 14.8864 0 18.7996 0C22.7128 0 26.2614 2.06116 28.2374 5.3146Z" fill="url(#paint2_linear_27_53998)"/>
<path d="M32.5036 17.1542C31.0837 17.7854 29.6211 18.3179 28.1249 18.7452L27.0244 15.4684C28.54 15.1074 30.0259 14.6463 31.4742 14.0891L32.5036 17.1542Z" fill="url(#paint3_linear_27_53998)"/>
</g>
<path d="M46.1356 28.1035C49.6109 30.0583 53.1587 31.0358 57.1046 31.0358C62.571 31.0358 65.9377 28.2845 65.9377 23.7955C65.9377 19.2703 63.5122 18.0033 59.8559 17.2069L53.8103 15.9036C52.3622 15.5778 51.6744 15.071 51.6744 13.9126C51.6744 12.4645 52.7967 11.7043 54.7515 11.7043C57.3218 11.7043 60.2541 12.6093 62.933 13.9126C63.2588 14.0574 63.5122 13.985 63.657 13.6592L65.2861 10.3286C65.4671 9.96662 65.2861 9.74942 65.0327 9.60461C61.8832 7.75835 58.0458 6.85331 55.0411 6.85331C50.154 6.85331 46.7148 9.42361 46.7148 14.2022C46.7148 18.0033 48.9231 19.9582 52.9053 20.827L59.0957 22.1664C60.4351 22.4561 60.9057 23.0353 60.9057 24.0851C60.9057 25.2436 59.9645 26.1848 57.2856 26.1848C54.0275 26.1848 51.2038 25.0625 48.4887 23.5783C48.1991 23.4335 47.9819 23.4697 47.8009 23.7955L45.9184 27.4156C45.7736 27.7052 45.846 27.8862 46.1356 28.1035Z" fill="#15BE53"/>
<path d="M78.7572 12.2473C76.5489 12.2473 74.6665 13.1523 73.3994 14.2022V6.70851C73.3994 6.3465 73.1822 6.12929 72.8202 6.12929H69.0553C68.6932 6.12929 68.476 6.3465 68.476 6.70851V30.0945C68.476 30.4565 68.6932 30.6737 69.0553 30.6737H72.8202C73.1822 30.6737 73.3994 30.4565 73.3994 30.0945V18.6187C74.3406 17.5327 75.7887 16.7363 77.3453 16.7363C79.7708 16.7363 81.0017 17.9671 81.0017 20.3926V30.0945C81.0017 30.4565 81.2189 30.6737 81.5809 30.6737H85.3458C85.7078 30.6737 85.925 30.4565 85.925 30.0945V19.7772C85.925 14.9624 82.9203 12.2473 78.7572 12.2473ZM72.422 20.284C72.4582 20.2116 72.4582 20.1392 72.4944 20.0668L72.422 20.284Z" fill="#15BE53"/>
<path d="M97.9173 12.2111C92.0889 12.2111 88.3601 16.4466 88.3601 21.6234C88.3601 26.8002 92.0889 31.0358 97.9173 31.0358C103.746 31.0358 107.474 26.8002 107.474 21.6234C107.474 16.4466 103.746 12.2111 97.9173 12.2111ZM93.2835 21.6234C93.2835 18.7635 95.166 16.8449 97.9173 16.8449C100.669 16.8449 102.551 18.7635 102.551 21.6234C102.551 24.4833 100.669 26.402 97.9173 26.402C95.166 26.402 93.2835 24.4833 93.2835 21.6234Z" fill="#15BE53"/>
<path d="M119.993 12.2111C117.857 12.2111 116.228 12.8627 114.997 13.9488V13.0799C114.997 12.7903 114.744 12.5731 114.49 12.5731H110.58C110.327 12.5731 110.074 12.7903 110.074 13.0799V37.4072C110.074 37.6968 110.327 37.914 110.58 37.914H114.49C114.744 37.914 114.997 37.6968 114.997 37.4072V29.2981C116.228 30.3841 117.857 31.0358 119.993 31.0358C125.459 31.0358 129.188 26.8002 129.188 21.6234C129.188 16.4466 125.459 12.2111 119.993 12.2111ZM119.631 26.4382C117.06 26.4382 114.997 24.4833 114.997 21.6234C114.997 18.7635 117.06 16.8087 119.631 16.8087C122.201 16.8087 124.264 18.7635 124.264 21.6234C124.264 24.4833 122.201 26.4382 119.631 26.4382Z" fill="#15BE53"/>
<path d="M137.491 26.4744C136.839 26.4744 136.549 26.0762 136.549 25.4246V6.56371C136.549 6.3103 136.405 6.12929 136.115 6.12929H132.097C131.807 6.12929 131.626 6.2741 131.626 6.56371V25.2798C131.626 28.5379 132.748 30.8548 136.549 30.8548C137.708 30.8548 138.323 30.7099 139.083 30.4203C139.373 30.2755 139.446 30.0583 139.373 29.8049L138.794 26.6916C138.685 26.402 138.504 26.3296 138.251 26.3658C138.034 26.402 137.889 26.4744 137.491 26.4744Z" fill="#15BE53"/>
<path d="M143.417 5.15186C141.607 5.15186 140.448 6.4913 140.448 8.12036C140.448 9.74942 141.607 11.0889 143.417 11.0889C145.227 11.0889 146.385 9.74942 146.385 8.12036C146.385 6.4913 145.227 5.15186 143.417 5.15186ZM145.371 12.5731H141.462C141.136 12.5731 140.955 12.7541 140.955 13.0799V30.1669C140.955 30.4927 141.136 30.6737 141.462 30.6737H145.371C145.697 30.6737 145.878 30.4927 145.878 30.1669V13.0799C145.878 12.7541 145.697 12.5731 145.371 12.5731Z" fill="#15BE53"/>
<path d="M165.837 12.5731H162.072C161.71 12.5731 161.493 12.7903 161.493 13.1523V23.1801C160.552 24.2661 159.104 25.0625 157.547 25.0625C155.122 25.0625 153.891 23.8317 153.891 21.4062V13.1523C153.891 12.7903 153.673 12.5731 153.311 12.5731H149.547C149.184 12.5731 148.967 12.7903 148.967 13.1523V22.0216C148.967 26.8364 151.972 29.5515 156.135 29.5515C158.343 29.5515 160.226 28.6465 161.493 27.5966V28.9723C161.493 33.0992 158.85 34.3663 156.208 34.3663C154.216 34.3663 152.443 33.7147 149.945 31.8322C149.655 31.615 149.366 31.615 149.112 31.9408L146.976 34.9455C146.723 35.2713 146.795 35.5247 147.085 35.7419C150.053 37.914 152.732 39 156.208 39C162.507 39 166.416 35.3799 166.416 29.2619V13.1523C166.416 12.7903 166.199 12.5731 165.837 12.5731Z" fill="#15BE53"/>
<defs>
<linearGradient id="paint0_linear_27_53998" x1="18.799" y1="8.4187" x2="18.799" y2="44.1585" gradientUnits="userSpaceOnUse">
<stop stop-color="#15BE53"/>
<stop offset="1" stop-color="#0DE65D"/>
</linearGradient>
<linearGradient id="paint1_linear_27_53998" x1="7.05658" y1="22.1956" x2="2.7535" y2="27.4973" gradientUnits="userSpaceOnUse">
<stop stop-color="#FFD848"/>
<stop offset="1" stop-color="#FFF27C"/>
</linearGradient>
<linearGradient id="paint2_linear_27_53998" x1="18.7989" y1="0" x2="18.7989" y2="21.1701" gradientUnits="userSpaceOnUse">
<stop stop-color="#15BE53"/>
<stop offset="1" stop-color="#00FF5E"/>
</linearGradient>
<linearGradient id="paint3_linear_27_53998" x1="31.58" y1="14.6517" x2="27.5438" y2="19.8765" gradientUnits="userSpaceOnUse">
<stop stop-color="#FFD848"/>
<stop offset="1" stop-color="#FFF27C"/>
</linearGradient>
<clipPath id="clip0_27_53998">
<rect width="36.4307" height="34.2228" fill="white" transform="translate(0.583618)"/>
</clipPath>
</defs>
</svg>
