<svg width="49" height="46" viewBox="0 0 49 46" fill="none" xmlns="http://www.w3.org/2000/svg">
<g clip-path="url(#clip0_27_53316)">
<path d="M48.9677 41.1119C47.0331 41.9219 45.0689 42.6307 43.0786 43.2382C37.0834 45.073 30.8536 46 24.4847 46C18.1159 46 11.886 45.073 5.88913 43.2382C3.89886 42.6307 1.93465 41.9219 0 41.1119L2.55694 33.4971C4.47595 34.321 6.44015 35.0333 8.44259 35.6338C13.5808 37.1736 18.9728 37.9696 24.4847 37.9696C29.9967 37.9696 35.3869 37.1736 40.5251 35.6338L39.0216 31.1595C34.3579 32.5229 29.4752 33.2282 24.4847 33.2282C19.4943 33.2282 14.6098 32.5229 9.94617 31.1595C7.93851 30.5747 5.97257 29.8659 4.0553 29.0367L6.06295 23.0576L7.44659 18.9359L10.007 11.3158C11.9469 12.0822 13.9493 12.6932 15.997 13.1401C18.7538 13.7441 21.5958 14.0531 24.4847 14.0531C27.3737 14.0531 30.2157 13.7441 32.9708 13.1401C35.0202 12.6932 37.0209 12.0822 38.9607 11.3158L41.5212 18.9377C39.5743 19.6866 37.5771 20.3063 35.5399 20.7916C31.9609 21.6453 28.2567 22.0835 24.4847 22.0835C20.7128 22.0835 17.0086 21.6453 13.4278 20.7916L11.9486 25.1944C15.9744 26.3483 20.1826 26.9436 24.4847 26.9436C28.7869 26.9436 32.9951 26.3483 37.0191 25.1961C39.0303 24.6218 40.9962 23.906 42.9048 23.0576L44.9124 29.0367L46.4108 33.4971L48.9677 41.1119Z" fill="url(#paint0_linear_27_53316)"/>
<path d="M9.94616 31.1596L8.44259 35.6339C6.44014 35.0333 4.47594 34.3211 2.55693 33.4971L4.05529 29.0367C5.97256 29.866 7.9385 30.5747 9.94616 31.1596Z" fill="url(#paint1_linear_27_53316)"/>
<path d="M37.1703 7.14353C35.4947 7.79818 33.7599 8.32364 32.0061 8.70596C31.5784 8.80023 31.1474 8.88577 30.7128 8.96258C29.1258 7.28842 26.8956 6.28463 24.4847 6.28463C22.0738 6.28463 19.8419 7.28842 18.2549 8.96258C17.8203 8.88402 17.3875 8.79848 16.9564 8.70421C15.2043 8.3219 13.4713 7.79818 11.7974 7.14353C14.4551 2.77047 19.2248 0 24.4847 0C29.7446 0 34.5143 2.77047 37.1703 7.14353Z" fill="url(#paint2_linear_27_53316)"/>
<path d="M42.9048 23.0577C40.9962 23.9061 39.0302 24.6218 37.0191 25.1962L35.5399 20.7917C37.5771 20.3064 39.5743 19.6867 41.5211 18.9377L42.9048 23.0577Z" fill="url(#paint3_linear_27_53316)"/>
</g>
<defs>
<linearGradient id="paint0_linear_27_53316" x1="24.4839" y1="11.3158" x2="24.4839" y2="59.3548" gradientUnits="userSpaceOnUse">
<stop stop-color="#15BE53"/>
<stop offset="1" stop-color="#0DE65D"/>
</linearGradient>
<linearGradient id="paint1_linear_27_53316" x1="8.70053" y1="29.8339" x2="2.91662" y2="36.9601" gradientUnits="userSpaceOnUse">
<stop stop-color="#FFD848"/>
<stop offset="1" stop-color="#FFF27C"/>
</linearGradient>
<linearGradient id="paint2_linear_27_53316" x1="24.4839" y1="0" x2="24.4839" y2="28.4554" gradientUnits="userSpaceOnUse">
<stop stop-color="#15BE53"/>
<stop offset="1" stop-color="#00FF5E"/>
</linearGradient>
<linearGradient id="paint3_linear_27_53316" x1="41.6632" y1="19.694" x2="36.238" y2="26.7167" gradientUnits="userSpaceOnUse">
<stop stop-color="#FFD848"/>
<stop offset="1" stop-color="#FFF27C"/>
</linearGradient>
<clipPath id="clip0_27_53316">
<rect width="48.9677" height="46" fill="white"/>
</clipPath>
</defs>
</svg>
