<svg width="51" height="51" viewBox="0 0 51 51" fill="none" xmlns="http://www.w3.org/2000/svg">
<g clip-path="url(#clip0_41_10805)">
<rect width="51" height="51" rx="7" fill="white"/>
<g clip-path="url(#clip1_41_10805)">
<path d="M65.8302 76.0305C62.6434 77.3512 59.4079 78.5067 56.1295 79.4973C46.2542 82.4887 35.9923 84.0001 25.5014 84.0001C15.0105 84.0001 4.74865 82.4887 -5.12954 79.4973C-8.40795 78.5067 -11.6434 77.3512 -14.8302 76.0305L-10.6184 63.6149C-7.45735 64.9584 -4.22189 66.1197 -0.923435 67.0988C7.54031 69.6092 16.4221 70.9071 25.5014 70.9071C34.5808 70.9071 43.4597 69.6092 51.9234 67.0988L49.4467 59.8037C41.7646 62.0267 33.7218 63.1766 25.5014 63.1766C17.2811 63.1766 9.23535 62.0267 1.55327 59.8037C-1.75377 58.8502 -4.9921 57.6946 -8.15026 56.3426L-4.84321 46.594L-2.56407 39.8739L1.65348 27.4498C4.84886 28.6994 8.14731 29.6956 11.5202 30.4242C16.0613 31.409 20.7427 31.9128 25.5014 31.9128C30.2601 31.9128 34.9415 31.409 39.4798 30.4242C42.8555 29.6956 46.1511 28.6994 49.3465 27.4498L53.5641 39.8768C50.3572 41.0978 47.0674 42.1083 43.7116 42.8995C37.8162 44.2914 31.7147 45.0058 25.5014 45.0058C19.2882 45.0058 13.1866 44.2914 7.28834 42.8995L4.85172 50.0779C11.483 51.9593 18.4149 52.9299 25.5014 52.9299C32.5879 52.9299 39.5199 51.9593 46.1483 50.0808C49.461 49.1443 52.6994 47.9773 55.8432 46.594L59.1502 56.3426L61.6184 63.6149L65.8302 76.0305Z" fill="url(#paint0_linear_41_10805)"/>
<path d="M46.3974 20.6471C43.6372 21.7144 40.7797 22.5712 37.8907 23.1945C37.1864 23.3482 36.4763 23.4877 35.7605 23.6129C33.1463 20.8833 29.4728 19.2467 25.5015 19.2467C21.5301 19.2467 17.8537 20.8833 15.2396 23.6129C14.5238 23.4848 13.8108 23.3454 13.1008 23.1917C10.2146 22.5683 7.35996 21.7144 4.60266 20.6471C8.98056 13.5171 16.8373 9 25.5015 9C34.1656 9 42.0224 13.5171 46.3974 20.6471Z" fill="url(#paint1_linear_41_10805)"/>
<path d="M55.8431 46.5939C52.6993 47.9772 49.4609 49.1441 46.1482 50.0806L43.7115 42.8994C47.0673 42.1081 50.3571 41.0976 53.564 39.8766L55.8431 46.5939Z" fill="url(#paint2_linear_41_10805)"/>
</g>
</g>
<defs>
<linearGradient id="paint0_linear_41_10805" x1="25.5" y1="27.4498" x2="25.5" y2="105.774" gradientUnits="userSpaceOnUse">
<stop stop-color="#15BE53"/>
<stop offset="1" stop-color="#0DE65D"/>
</linearGradient>
<linearGradient id="paint1_linear_41_10805" x1="25.5" y1="9" x2="25.5" y2="55.3947" gradientUnits="userSpaceOnUse">
<stop stop-color="#15BE53"/>
<stop offset="1" stop-color="#00FF5E"/>
</linearGradient>
<linearGradient id="paint2_linear_41_10805" x1="53.798" y1="41.1095" x2="44.9759" y2="52.6471" gradientUnits="userSpaceOnUse">
<stop stop-color="#FFD848"/>
<stop offset="1" stop-color="#FFF27C"/>
</linearGradient>
<clipPath id="clip0_41_10805">
<rect width="51" height="51" rx="7" fill="white"/>
</clipPath>
<clipPath id="clip1_41_10805">
<rect width="80.6604" height="75" fill="white" transform="translate(-14.8302 9)"/>
</clipPath>
</defs>
</svg>
